<svg width="512" height="453" viewBox="0 0 512 453" fill="none" xmlns="http://www.w3.org/2000/svg">
<g clip-path="url(#clip0_5681_2)">
<path fill-rule="evenodd" clip-rule="evenodd" d="M143.65 161.02C176.7 101.68 234.29 62.75 308.4 71.04C377.46 78.76 440.31 128.68 455.59 202.72C468.37 264.72 444.8 323.83 402.96 363.82C354.09 410.52 280.3 431.14 210.35 399.83C174.51 383.78 150.12 363.33 131.88 336.99C130.02 334.54 127.52 330.58 124.05 328C113.98 320.47 100.73 329.41 102.77 340.43C103.2 342.79 104.26 345.31 106.13 347.96C121.13 371.67 137.77 389.79 159.51 406.36C209.35 444.34 273.78 461.49 338.43 448.16C398.66 435.75 447.61 399.24 477.94 350.36C530.98 264.9 518.89 162.04 463.68 89.93C429.39 45.14 378.46 12.21 316.18 2.67C211.03 -13.44 105.47 44.94 71.66 137.99L29.15 124.39C17.37 120.66 4.78 127.18 1.05 138.96C-0.612195 144.187 -0.291823 149.844 1.95 154.85L50.59 263.38C55.63 274.68 68.88 279.75 80.18 274.7L81.83 273.88L81.85 273.91L188.47 215.07C199.33 209.1 203.3 195.46 197.34 184.6C194.19 178.86 188.9 175.05 183 173.6L143.65 161.02Z" fill="white"/>
</g>
<defs>
<clipPath id="clip0_5681_2">
<rect width="512" height="452.64" fill="white"/>
</clipPath>
</defs>
</svg>
